<?xml version="1.0" standalone="no"?>
<!DOCTYPE svg PUBLIC "-//W3C//DTD SVG 20010904//EN"
 "http://www.w3.org/TR/2001/REC-SVG-20010904/DTD/svg10.dtd">
<svg version="1.0" xmlns="http://www.w3.org/2000/svg"
 width="100.000000pt" height="100.000000pt" viewBox="0 0 100.000000 100.000000"
 preserveAspectRatio="xMidYMid meet">

<g transform="translate(0.000000,100.000000) scale(0.100000,-0.100000)"
fill="#000000" stroke="none">
<path d="M474 990 c-21 -8 -66 -60 -99 -115 -18 -29 -18 -29 11 3 l29 34 -3
-106 c-3 -101 -4 -106 -25 -107 -53 -4 98 -17 200 -18 l111 -1 -14 60 c-19 83
-56 152 -113 210 -48 51 -59 55 -97 40z"/>
<path d="M480 603 c14 -2 35 -12 48 -21 23 -18 22 -18 -17 -14 -34 3 -45 -1
-71 -26 -32 -32 -39 -76 -20 -113 13 -23 61 -49 90 -49 18 0 19 -2 8 -14 -8
-8 -23 -16 -34 -19 -10 -2 -2 -5 19 -6 109 -3 176 119 114 210 -29 43 -61 59
-117 57 -25 0 -34 -3 -20 -5z"/>
<path d="M238 413 l-58 -36 0 -142 0 -143 46 -7 c70 -10 73 -2 74 198 0 92 -1
167 -2 167 -2 -1 -29 -17 -60 -37z"/>
<path d="M710 275 l0 -165 -187 -1 c-104 -1 -179 -3 -168 -6 11 -2 27 -7 35
-10 8 -3 20 -5 25 -4 6 1 4 -3 -2 -10 -7 -7 -13 -27 -13 -45 l0 -32 155 -1
c143 -1 155 0 165 18 5 11 10 31 10 44 l0 24 114 -4 c153 -7 156 -5 156 96 0
61 -4 83 -17 99 -15 17 -255 162 -269 162 -2 0 -4 -74 -4 -165z"/>
<path d="M320 35 c0 -24 5 -35 15 -35 10 0 15 11 15 35 0 24 -5 35 -15 35 -10
0 -15 -11 -15 -35z"/>
</g>
</svg>
